<svg xmlns="http://www.w3.org/2000/svg" xmlns:xlink="http://www.w3.org/1999/xlink" version="1.1" id="Layer_1" x="0px" y="0px" width="512px" height="443.152px" viewBox="0.331 -0.001 512 443.152" enable-background="new 0.331 -0.001 512 443.152" xml:space="preserve">
<path d="M221.917,443.152c-6.726,0-13.334-2.624-18.273-7.564c0,0-187.549-187.542-195.47-195.453  c-1.277-1.25-2.454-2.65-3.482-4.189c-6.854-10.252-5.511-23.92,3.211-32.639L203.644,7.574c7.381-7.4,18.507-9.608,28.152-5.603  c9.659,4,15.955,13.425,15.955,23.873v88.28h238.739c14.271,0,25.841,11.57,25.841,25.841v163.231  c0,14.271-11.57,25.841-25.841,25.841H247.751v88.273c0,10.454-6.296,19.873-15.955,23.872  C228.604,442.515,225.245,443.152,221.917,443.152z M62.726,221.582L196.07,354.929v-51.732c0-14.271,11.57-25.841,25.841-25.841  H460.65V165.813H221.911c-14.271,0-25.841-11.57-25.841-25.841V88.24L62.726,221.582z" fill="#FFFFFF"/>
</svg>
