<svg version="1.1" id="Layer_1" xmlns="http://www.w3.org/2000/svg" xmlns:xlink="http://www.w3.org/1999/xlink" x="0px" y="0px"
	 width="24px" height="24px" viewBox="0 0 24 24" enable-background="new 0 0 24 24" xml:space="preserve">
<path fill="#fff" d="M24,2.5v19c0,1.381-1.119,2.5-2.5,2.5h-19C1.119,24,0,22.881,0,21.5v-6.068l5.139,2.063c0.353,1.627,1.803,2.85,3.533,2.85
	c1.873,0,3.419-1.436,3.598-3.264l4.641-3.394c2.675,0,4.846-2.167,4.846-4.841C21.757,6.17,19.586,4,16.911,4
	c-2.661,0-4.822,2.146-4.846,4.801l-3.019,4.327c-0.123-0.013-0.248-0.021-0.374-0.021c-0.675,0-1.305,0.186-1.847,0.51L0,10.872
	V2.5C0,1.119,1.119,0,2.5,0h19C22.881,0,24,1.119,24,2.5 M7.629,18.498c-0.437-0.179-0.875-0.354-1.313-0.53
	c0.444,0.846,1.33,1.418,2.356,1.418c1.474,0,2.66-1.186,2.66-2.66s-1.186-2.66-2.66-2.66c-0.197,0-0.39,0.025-0.574,0.065
	l1.108,0.444c1.084,0.436,1.613,1.666,1.177,2.75C9.948,18.409,8.713,18.933,7.629,18.498 M16.911,12.09
	c-1.792,0-3.249-1.452-3.249-3.244c0-1.793,1.457-3.249,3.249-3.249s3.249,1.456,3.249,3.249
	C20.16,10.638,18.703,12.09,16.911,12.09 M16.924,11.426c1.432,0,2.595-1.163,2.595-2.595c0-1.433-1.163-2.596-2.595-2.596
	s-2.595,1.163-2.595,2.596C14.329,10.263,15.492,11.426,16.924,11.426"/>
</svg>
